<svg width="32" height="32" viewBox="0 0 32 32" fill="none" xmlns="http://www.w3.org/2000/svg">
  <rect width="32" height="32" rx="6" fill="#306998"/>
  <path d="M16 8C16 6.89543 16.8954 6 18 6H24C25.1046 6 26 6.89543 26 8V14C26 15.1046 25.1046 16 24 16H18C16.8954 16 16 15.1046 16 14V8Z" fill="#FFD43B"/>
  <path d="M16 24C16 25.1046 15.1046 26 14 26H8C6.89543 26 6 25.1046 6 24V18C6 16.8954 6.89543 16 8 16H14C15.1046 16 16 16.8954 16 18V24Z" fill="#FFD43B"/>
  <circle cx="11" cy="21" r="1" fill="#222"/>
  <circle cx="21" cy="11" r="1" fill="#222"/>
</svg> 